<svg height="1502" width="720" xmlns="http://www.w3.org/2000/svg">
<rect height="1502" fill="#555" width="720"></rect>
<text fill="#7f7" font-family="Courier New" font-size="12" xml:space="preserve">
<tspan x="10" y="26">15 megabytes installed</tspan>
<tspan x="10" y="42"></tspan>
<tspan x="10" y="58">node_modules</tspan>
<tspan x="10" y="74">└─┬ kss@3.0.0-beta.18 </tspan>
<tspan x="10" y="90">  ├── bluebird@3.5.0 </tspan>
<tspan x="10" y="106">  ├─┬ fs-extra@2.1.2 </tspan>
<tspan x="10" y="122">  │ ├── graceful-fs@4.1.11 </tspan>
<tspan x="10" y="138">  │ └── jsonfile@2.4.0 </tspan>
<tspan x="10" y="154">  ├─┬ glob@7.1.1 </tspan>
<tspan x="10" y="170">  │ ├── fs.realpath@1.0.0 </tspan>
<tspan x="10" y="186">  │ ├─┬ inflight@1.0.6 </tspan>
<tspan x="10" y="202">  │ │ └── wrappy@1.0.2 </tspan>
<tspan x="10" y="218">  │ ├── inherits@2.0.3 </tspan>
<tspan x="10" y="234">  │ ├─┬ minimatch@3.0.3 </tspan>
<tspan x="10" y="250">  │ │ └─┬ brace-expansion@1.1.7 </tspan>
<tspan x="10" y="266">  │ │   ├── balanced-match@0.4.2 </tspan>
<tspan x="10" y="282">  │ │   └── concat-map@0.0.1 </tspan>
<tspan x="10" y="298">  │ ├── once@1.4.0 </tspan>
<tspan x="10" y="314">  │ └── path-is-absolute@1.0.1 </tspan>
<tspan x="10" y="330">  ├─┬ handlebars@4.0.6 </tspan>
<tspan x="10" y="346">  │ ├── async@1.5.2 </tspan>
<tspan x="10" y="362">  │ ├─┬ optimist@0.6.1 </tspan>
<tspan x="10" y="378">  │ │ ├── minimist@0.0.10 </tspan>
<tspan x="10" y="394">  │ │ └── wordwrap@0.0.3 </tspan>
<tspan x="10" y="410">  │ ├─┬ source-map@0.4.4 </tspan>
<tspan x="10" y="426">  │ │ └── amdefine@1.0.1 </tspan>
<tspan x="10" y="442">  │ └─┬ uglify-js@2.8.22 </tspan>
<tspan x="10" y="458">  │   ├── source-map@0.5.6 </tspan>
<tspan x="10" y="474">  │   ├── uglify-to-browserify@1.0.2 </tspan>
<tspan x="10" y="490">  │   └─┬ yargs@3.10.0 </tspan>
<tspan x="10" y="506">  │     ├── camelcase@1.2.1 </tspan>
<tspan x="10" y="522">  │     ├─┬ cliui@2.1.0 </tspan>
<tspan x="10" y="538">  │     │ ├─┬ center-align@0.1.3 </tspan>
<tspan x="10" y="554">  │     │ │ ├─┬ align-text@0.1.4 </tspan>
<tspan x="10" y="570">  │     │ │ │ ├─┬ kind-of@3.1.0 </tspan>
<tspan x="10" y="586">  │     │ │ │ │ └── is-buffer@1.1.5 </tspan>
<tspan x="10" y="602">  │     │ │ │ ├── longest@1.0.1 </tspan>
<tspan x="10" y="618">  │     │ │ │ └── repeat-string@1.6.1 </tspan>
<tspan x="10" y="634">  │     │ │ └── lazy-cache@1.0.4 </tspan>
<tspan x="10" y="650">  │     │ ├── right-align@0.1.3 </tspan>
<tspan x="10" y="666">  │     │ └── wordwrap@0.0.2 </tspan>
<tspan x="10" y="682">  │     └── window-size@0.1.0 </tspan>
<tspan x="10" y="698">  ├── marked@0.3.6 </tspan>
<tspan x="10" y="714">  ├─┬ twig@0.10.3 </tspan>
<tspan x="10" y="730">  │ ├── locutus@2.0.8 </tspan>
<tspan x="10" y="746">  │ └─┬ walk@2.3.9 </tspan>
<tspan x="10" y="762">  │   └── foreachasync@3.0.0 </tspan>
<tspan x="10" y="778">  └─┬ yargs@6.6.0 </tspan>
<tspan x="10" y="794">    ├── camelcase@3.0.0 </tspan>
<tspan x="10" y="810">    ├─┬ cliui@3.2.0 </tspan>
<tspan x="10" y="826">    │ └── wrap-ansi@2.1.0 </tspan>
<tspan x="10" y="842">    ├── decamelize@1.2.0 </tspan>
<tspan x="10" y="858">    ├── get-caller-file@1.0.2 </tspan>
<tspan x="10" y="874">    ├─┬ os-locale@1.4.0 </tspan>
<tspan x="10" y="890">    │ └─┬ lcid@1.0.0 </tspan>
<tspan x="10" y="906">    │   └── invert-kv@1.0.0 </tspan>
<tspan x="10" y="922">    ├─┬ read-pkg-up@1.0.1 </tspan>
<tspan x="10" y="938">    │ ├─┬ find-up@1.1.2 </tspan>
<tspan x="10" y="954">    │ │ ├── path-exists@2.1.0 </tspan>
<tspan x="10" y="970">    │ │ └─┬ pinkie-promise@2.0.1 </tspan>
<tspan x="10" y="986">    │ │   └── pinkie@2.0.4 </tspan>
<tspan x="10" y="1002">    │ └─┬ read-pkg@1.1.0 </tspan>
<tspan x="10" y="1018">    │   ├─┬ load-json-file@1.1.0 </tspan>
<tspan x="10" y="1034">    │   │ ├─┬ parse-json@2.2.0 </tspan>
<tspan x="10" y="1050">    │   │ │ └─┬ error-ex@1.3.1 </tspan>
<tspan x="10" y="1066">    │   │ │   └── is-arrayish@0.2.1 </tspan>
<tspan x="10" y="1082">    │   │ ├── pify@2.3.0 </tspan>
<tspan x="10" y="1098">    │   │ └─┬ strip-bom@2.0.0 </tspan>
<tspan x="10" y="1114">    │   │   └── is-utf8@0.2.1 </tspan>
<tspan x="10" y="1130">    │   ├─┬ normalize-package-data@2.3.6 </tspan>
<tspan x="10" y="1146">    │   │ ├── hosted-git-info@2.4.2 </tspan>
<tspan x="10" y="1162">    │   │ ├─┬ is-builtin-module@1.0.0 </tspan>
<tspan x="10" y="1178">    │   │ │ └── builtin-modules@1.1.1 </tspan>
<tspan x="10" y="1194">    │   │ ├── semver@5.3.0 </tspan>
<tspan x="10" y="1210">    │   │ └─┬ validate-npm-package-license@3.0.1 </tspan>
<tspan x="10" y="1226">    │   │   ├─┬ spdx-correct@1.0.2 </tspan>
<tspan x="10" y="1242">    │   │   │ └── spdx-license-ids@1.2.2 </tspan>
<tspan x="10" y="1258">    │   │   └── spdx-expression-parse@1.0.4 </tspan>
<tspan x="10" y="1274">    │   └── path-type@1.1.0 </tspan>
<tspan x="10" y="1290">    ├── require-directory@2.1.1 </tspan>
<tspan x="10" y="1306">    ├── require-main-filename@1.0.1 </tspan>
<tspan x="10" y="1322">    ├── set-blocking@2.0.0 </tspan>
<tspan x="10" y="1338">    ├─┬ string-width@1.0.2 </tspan>
<tspan x="10" y="1354">    │ ├── code-point-at@1.1.0 </tspan>
<tspan x="10" y="1370">    │ ├─┬ is-fullwidth-code-point@1.0.0 </tspan>
<tspan x="10" y="1386">    │ │ └── number-is-nan@1.0.1 </tspan>
<tspan x="10" y="1402">    │ └─┬ strip-ansi@3.0.1 </tspan>
<tspan x="10" y="1418">    │   └── ansi-regex@2.1.1 </tspan>
<tspan x="10" y="1434">    ├── which-module@1.0.0 </tspan>
<tspan x="10" y="1450">    ├── y18n@3.2.1 </tspan>
<tspan x="10" y="1466">    └─┬ yargs-parser@4.2.1 </tspan>
<tspan x="10" y="1482">      └── camelcase@3.0.0</tspan>
</text>
</svg>
